# xmcd
#
# Track frame offsets: 
#        150
#        21265
#        32359
#        50620
#        66467
#        85605
#        103431
#        118459
#        134490
#        143944
#
# Disc length: 2167 seconds
#
# Revision: 0
# Processed by: cddbd v1.5.2PL0 Copyright (c) Steve Scherf et al.
# Submitted via: ExactAudioCopy v1.3
#
DISCID=9708750a
DTITLE=The Alabama Lovesnakes - III
DYEAR=2018
DGENRE=Blues Rock
TTITLE0=Tired Of Trying
TTITLE1=The Flower And The Bee
TTITLE2=Daddy's Gone Shooting
TTITLE3=Damn, Amsterdam!
TTITLE4=I'm Gonna Move To The Outskirts Of Town
TTITLE5=Train, Take My Pain Away
TTITLE6=Somebody Call A Doctor
TTITLE7=Cold Hearted Woman
TTITLE8=In The Middle Of The Night
TTITLE9=Baby Is Gone
EXTD=
EXTT0=
EXTT1=
EXTT2=
EXTT3=
EXTT4=
EXTT5=
EXTT6=
EXTT7=
EXTT8=
EXTT9=
PLAYORDER=
